<svg width="20" height="20" viewBox="0 0 20 20" fill="none" xmlns="http://www.w3.org/2000/svg">
<g filter="url(#filter0_d)">
<path d="M15.7396 5.21046C15.9758 4.98026 16.0592 4.64241 15.9573 4.32835C15.8552 4.01429 15.5892 3.7901 15.2624 3.74252L12.3568 3.32033C12.233 3.30231 12.1261 3.2247 12.0708 3.11248L10.7718 0.479619C10.626 0.183822 10.3299 0 10 0C9.67032 0 9.37428 0.183822 9.22843 0.479619L7.92918 3.11248C7.87391 3.2247 7.76674 3.30231 7.64299 3.32033L4.7374 3.74276C4.41085 3.7901 4.14485 4.01429 4.04272 4.32835C3.94084 4.64241 4.02422 4.98026 4.26042 5.21046L6.36272 7.25965C6.45235 7.34712 6.49344 7.47303 6.4723 7.59606L5.9761 10.4899C5.92035 10.815 6.05131 11.1372 6.31827 11.3314C6.58499 11.5258 6.93221 11.551 7.22465 11.397L9.82315 10.0307C9.93392 9.97253 10.0661 9.97253 10.1769 10.0307L12.7756 11.397C12.9025 11.4638 13.0399 11.4967 13.1766 11.4967C13.3542 11.4967 13.5311 11.4412 13.682 11.3314C13.9489 11.1372 14.0799 10.815 14.0241 10.4899L13.5277 7.5963C13.5066 7.47303 13.5476 7.34736 13.6373 7.25989L15.7396 5.21046ZM13.0543 7.67752L13.5505 10.5711C13.5755 10.7167 13.5191 10.8558 13.3994 10.9428C13.2795 11.0296 13.1303 11.0401 12.9993 10.9719L10.4006 9.60537C10.2754 9.53977 10.1374 9.50661 10 9.50661C9.86255 9.50661 9.72487 9.53977 9.59944 9.60561L7.00118 10.9719C6.86974 11.0401 6.72052 11.0296 6.60085 10.9428C6.48119 10.8558 6.42496 10.7169 6.44971 10.5711L6.94591 7.67752C6.99373 7.3983 6.90122 7.11331 6.69841 6.9158L4.59587 4.86636C4.4899 4.76303 4.45386 4.61742 4.49975 4.47685C4.54541 4.33604 4.66003 4.23944 4.80636 4.21806L7.71171 3.79587C7.99213 3.75526 8.23459 3.57936 8.35978 3.32514L9.65903 0.692276C9.72439 0.559636 9.85198 0.480581 9.99976 0.480581C10.1478 0.480581 10.2751 0.559636 10.3407 0.692276L11.64 3.32514C11.7652 3.57936 12.0074 3.75526 12.2878 3.79587L15.1934 4.21806C15.3397 4.23944 15.4544 4.33604 15.5 4.47685C15.5457 4.61742 15.5099 4.76303 15.4039 4.86636L13.3016 6.91556C13.0988 7.11331 13.0063 7.39806 13.0543 7.67752Z" fill="#9D2929"/>
</g>
<defs>
<filter id="filter0_d" x="0" y="0" width="20" height="19.497" filterUnits="userSpaceOnUse" color-interpolation-filters="sRGB">
<feFlood flood-opacity="0" result="BackgroundImageFix"/>
<feColorMatrix in="SourceAlpha" type="matrix" values="0 0 0 0 0 0 0 0 0 0 0 0 0 0 0 0 0 0 127 0"/>
<feOffset dy="4"/>
<feGaussianBlur stdDeviation="2"/>
<feColorMatrix type="matrix" values="0 0 0 0 0 0 0 0 0 0 0 0 0 0 0 0 0 0 0.25 0"/>
<feBlend mode="normal" in2="BackgroundImageFix" result="effect1_dropShadow"/>
<feBlend mode="normal" in="SourceGraphic" in2="effect1_dropShadow" result="shape"/>
</filter>
</defs>
</svg>
